<svg id="Capa_1" enable-background="new 0 0 512 512" height="512" viewBox="0 0 512 512" width="512" xmlns="http://www.w3.org/2000/svg" xmlns:xlink="http://www.w3.org/1999/xlink"><linearGradient id="SVGID_1_" gradientUnits="userSpaceOnUse" x1="256" x2="256" y1="512" y2="0"><stop offset="0" stop-color="#5558ff"/><stop offset="1" stop-color="#00c0ff"/></linearGradient><linearGradient id="SVGID_2_" gradientUnits="userSpaceOnUse" x1="256" x2="256" y1="391" y2="121"><stop offset="0" stop-color="#addcff"/><stop offset=".5028" stop-color="#eaf6ff"/><stop offset="1" stop-color="#eaf6ff"/></linearGradient><g id="Gear_2_"><g><g><path d="m497 211h-51.42c-4.775-20.361-12.715-39.536-23.701-57.246l35.654-35.64c5.856-5.856 5.86-15.351 0-21.211l-42.422-42.422c-5.859-5.859-15.352-5.859-21.211 0l-35.654 35.64c-17.607-10.84-37.031-18.882-57.246-23.686v-51.435c0-8.291-6.709-15-15-15h-60c-8.291 0-15 6.709-15 15v51.435c-20.215 4.805-39.639 12.847-57.246 23.687l-35.654-35.641c-5.859-5.859-15.352-5.859-21.211 0l-42.422 42.422c-5.856 5.856-5.86 15.351 0 21.211l35.654 35.64c-10.986 17.71-18.926 36.885-23.701 57.246h-51.42c-8.291 0-15 6.709-15 15v60c0 8.291 6.709 15 15 15h51.42c4.775 20.361 12.715 39.536 23.701 57.246l-35.654 35.64c-5.856 5.856-5.86 15.351 0 21.211l42.422 42.422c5.859 5.859 15.352 5.859 21.211 0l35.654-35.64c17.607 10.84 37.031 18.882 57.246 23.687v51.434c0 8.291 6.709 15 15 15h60c8.291 0 15-6.709 15-15v-51.435c20.215-4.805 39.639-12.847 57.246-23.687l35.654 35.64c5.859 5.859 15.352 5.859 21.211 0l42.422-42.422c5.856-5.856 5.86-15.351 0-21.211l-35.654-35.64c10.986-17.71 18.926-36.885 23.701-57.246h51.42c8.291 0 15-6.709 15-15v-60c0-8.29-6.709-14.999-15-14.999z" fill="url(#SVGID_1_)"/></g></g><g><g><g><path d="m256 181c-41.367 0-75 33.647-75 75s33.633 75 75 75 75-33.647 75-75-33.633-75-75-75zm0-30c8.284 0 15-6.716 15-15s-6.716-15-15-15-15 6.716-15 15 6.716 15 15 15zm0 210c-8.284 0-15 6.716-15 15s6.716 15 15 15 15-6.716 15-15-6.716-15-15-15zm-120-120c-8.284 0-15 6.716-15 15s6.716 15 15 15 15-6.716 15-15-6.716-15-15-15zm240 0c-8.284 0-15 6.716-15 15s6.716 15 15 15 15-6.716 15-15-6.716-15-15-15z" fill="url(#SVGID_2_)"/></g></g></g></g></svg>